<?xml version="1.0" encoding="utf-8"?>
<!-- Generator: Adobe Illustrator 19.1.0, SVG Export Plug-In . SVG Version: 6.00 Build 0)  -->
<svg version="1.1" id="Layer_1" xmlns="http://www.w3.org/2000/svg" xmlns:xlink="http://www.w3.org/1999/xlink" x="0px" y="0px"
	 viewBox="0 0 612 792" style="enable-background:new 0 0 612 792;" xml:space="preserve">
<style type="text/css">
	.st0{fill:none;stroke:#F1F2F2;stroke-width:3;stroke-miterlimit:10;}
</style>
<g>
	<g>
		<path class="st0" d="M191.9,240.6c-2.9-2.5-6-5.1-9.3-7.8c-9.4-7.8-19.5-16.2-26.8-24.5c-1-0.1-2-0.2-2.9-0.4
			c7.6,9,18.4,18,28.5,26.4c3.3,2.7,6.4,5.3,9.2,7.8c30.6,26.5,58.4,47.7,67.5,53c8.7,5,33.6,13.6,34.6,14l0.7-1.9
			c-0.3-0.1-25.7-8.9-34.3-13.8C250,288.2,222.5,267,191.9,240.6z"/>
		<path class="st0" d="M368.8,135.5C347.9,117,326,98.7,307.8,88.6c-0.2,0.6-0.3,1.3-0.5,1.9c20.9,11.7,45.4,33.5,60.1,46.5
			c25,22.2,44.8,73.3,41.6,84.7l1.9,0.5C414.3,210.1,394.8,158.6,368.8,135.5z"/>
	</g>
</g>
<g>
	<g>
		<path class="st0" d="M297.3,315.3c-15.2-0.8-33.5-10.8-42.2-40.6c-8.8-29.8,14.8-71.7,48.1-92.5c33.3-20.8,74.4-19.1,93.8,1.5
			c19.3,20.6,18.3,40.6,18.3,40.6"/>
	</g>
	<g>
		<path class="st0" d="M360.2,181.9c-21,0-50.4,7.5-69.8,28.5c-8.1,8.8-14.1,19.5-18,32.1c-7.7,25.3,1.3,53.3,22.4,69.7
			c3.4,2.6,5.9,4.5,7.9,6c5.9,4.4,7.9,5.9,15.5,13.9c3.9,4.1,8.7,10.6,14.2,18.2c15.2,20.8,36,49.4,56.3,50.7
			c6.5,0.4,11.7,0.7,16,0.7c0,0,0,0,0,0c14.5,0,19.1-3.1,23.9-15.8c6-16.1,15.4-41.2,16.3-43.6l-1.1-31.2
			c-1.5-2.1-12.2-17.7-16.8-28.2c-4.1-9.4-4.3-23.5-4.4-33.9c0-2.2-0.1-4.3-0.1-6.2c-0.4-10.8-15.1-48.5-39.8-57.6
			C376.6,183.1,368.8,181.9,360.2,181.9z"/>
	</g>
</g>
<g>
	<g>
		<path class="st0" d="M331,323.5c8.6-19.1,22.8-53.2,49.8-61.8c27-8.6,35.2,0.4,42.3,9.7c7.1,9.4,10.8,16.5,10.8,16.5
			s3.1-14.2-10-28.1c-13.1-13.9-13.5-26.2-35.6-29.6c-22.1-3.4-38.6,0.7-59.2,12.7c-20.6,12-31.1,24-31.8,41.6
			c-0.7,17.6,5.2,38.9,5.2,38.9s6.2,4.7,1.2-6.4c-4.9-11.1-0.9-18,5.1-17.6c6,0.4,12-2.6,15.7-6c3.7-3.4,7.1-5.6,7.1-5.6
			s-9,20.2-7.5,30.7C325.8,329.1,331,323.5,331,323.5z"/>
	</g>
	<g>
		<path class="st0" d="M434.2,381.6"/>
		<path class="st0" d="M445.5,326.2"/>
	</g>
	<g>
		<path class="st0" d="M316.3,648.4l-12.5-96.8l12.5-15c0,0-8-55.4-2-77.9c6-22.5,7.5-25.5,5.5-41.9c-2-16.5-3.5-33.9-2-47.4
			c1.5-13.5-6.5-36.4-2-46.9c4.5-10.5,14-12,30.4,7c16.5,19,27.5,31.4,35.4,45.4c8,14,22.5,25.5,43.4,10c11.2-8.3,19-34.2,18.2-55.2
			c-0.7-18.4-9.3-32.6-9.3-32.6s30.8,18,3.4,82.9c-27.4,64.9-2.4,58.9-24.9,100.8c-22.5,41.9-50.4,63.4-51.4,88.4
			c-1,25,4.5,55.9,4.5,55.9L316.3,648.4z"/>
	</g>
</g>
<g>
	<g>
		<path class="st0" d="M314,534.4c-1.2,1-3.1,2.6-6.3,5.1c-7.4,6-6.8,10-6.1,15l0.1,0.9c0.1,0.8,0.3,1.8,0.5,3
			c1.3,7.6,3.9,23.4,5.2,64.5c1.3,40.8,10.5,52.3,20.4,64.5c1.6,2,3.3,5,5,7.3c6.6,9,14.8,11.8,20.4,11.8c0,0,0,0,0,0
			c5.7,0,11.6-2.7,16.2-6c8.2-5.8,9.4-13.2,5.5-45.9c-2.7-22.7-8.4-48.6-12.4-61.1v4.8c0,9.5,3.3,26.6,3.3,26.8
			c0,0.3,0.3,0.5,0.2,0.8c-0.2,0.2-0.2,0.4-0.5,0.4c-0.1,0-6.1,0.8-21.6,2.6c-10.9,1.3-17.5,9.3-20.7,12.9c-1.4,1.6-1.9,2.8-2.7,2.8
			c0,0,0,0,0,0c-0.5,0-1-1-1.1-1.5c-6.5-20.7-7.9-37.8-9.1-51.2c-0.5-6.3-1-12.4-2-17.9l-0.4-2.5c-2.6-15-3.2-18.1,1.4-24.2
			C312.2,543.3,313.5,537.6,314,534.4z"/>
	</g>
	<path class="st0" d="M354.4,698.8c-3.9,0-7.6-1.2-11-3.5c-13.4-9-20.2-33.9-23.5-53.2c0-0.3,0.1-0.5,0.4-0.6
		c0.3-0.1,0.5,0.1,0.6,0.4c3.3,19.1,10,43.7,23.1,52.5c4.4,3,9.4,4,14.7,2.8c19.5-4.1,12.7-39.8,8.6-61.2c-0.8-4.4-1.6-8.1-2-11.1
		c0-0.3,0.2-0.5,0.4-0.6c0.3,0,0.5,0.2,0.6,0.4c0.4,3,1.1,6.7,2,11.1c4.4,23.1,11.1,58-9.4,62.3
		C357.3,698.6,355.9,698.8,354.4,698.8z"/>
</g>
<g>
	<g>
		<path class="st0" d="M416.4,418c-0.7,9.4-6.6,17.7-13.1,18.5c-6.5,0.8-11.2-6.2-10.5-15.7c0.7-9.4,6.6-17.7,13.1-18.5
			C412.4,401.5,417.1,408.5,416.4,418z"/>
		<path class="st0" d="M402.3,437c-0.3,0-0.5,0-0.8,0l0.1-1c0.5,0.1,1.1,0,1.6,0l0.3,0l0.2,1l-0.3,0C403,437,402.7,437,402.3,437z
			 M399.5,436.5c-0.7-0.2-1.3-0.6-1.9-1l0.6-0.8c0.5,0.4,1.1,0.7,1.7,0.9L399.5,436.5z M405.7,436.4l-0.4-0.9
			c0.6-0.2,1.1-0.5,1.7-0.8l0.5,0.9C406.9,435.8,406.3,436.1,405.7,436.4z M409.2,434.3l-0.6-0.8c0.5-0.4,1-0.8,1.4-1.3l0.7,0.7
			C410.3,433.3,409.8,433.8,409.2,434.3z M396,434.2c-0.5-0.5-0.9-1-1.3-1.7l0.8-0.5c0.4,0.6,0.7,1.1,1.2,1.5L396,434.2z
			 M412.1,431.3l-0.8-0.6c0.4-0.5,0.8-1.1,1.1-1.6l0.9,0.5C412.9,430.2,412.5,430.7,412.1,431.3z M393.8,430.7
			c-0.3-0.6-0.5-1.3-0.7-1.9l1-0.3c0.2,0.6,0.4,1.2,0.7,1.8L393.8,430.7z M414.2,427.8l-0.9-0.4c0.3-0.6,0.6-1.2,0.8-1.8l0.9,0.4
			C414.8,426.6,414.5,427.2,414.2,427.8z M392.6,426.8c-0.1-0.7-0.2-1.3-0.3-2l1-0.1c0.1,0.7,0.1,1.3,0.3,1.9L392.6,426.8z
			 M415.7,424l-1-0.3c0.2-0.6,0.4-1.3,0.5-1.9l1,0.2C416.1,422.7,415.9,423.4,415.7,424z M390.5,422.7L390.5,422.7
			c0-0.7,0.9-1.3,0.9-1.9l0.4-0.1l1.2,0.1l0.1,0.1c0,0.6-0.9,1.2-0.9,1.8L390.5,422.7z M416.7,420l-1-0.2c0.1-0.6,0.2-1.3,0.2-1.9
			l1,0.1C416.8,418.7,416.8,419.4,416.7,420z M393.5,418.8l-1-0.2c0.1-0.7,0.2-1.3,0.4-2l1,0.2C393.7,417.5,393.6,418.1,393.5,418.8
			z M416,416.2c0-0.7,0-1.4-0.1-2l1-0.1c0.1,0.6,0.1,1.3,0.1,1.9L416,416.2z M394.4,415l-1-0.3c0.2-0.6,0.4-1.3,0.7-1.9l0.9,0.4
			C394.8,413.7,394.6,414.3,394.4,415z M415.6,412.3c-0.1-0.6-0.3-1.3-0.4-1.9l1-0.3c0.2,0.6,0.3,1.3,0.5,2L415.6,412.3z
			 M395.9,411.3l-0.9-0.5c0.3-0.6,0.6-1.2,1-1.8l0.8,0.5C396.5,410.2,396.2,410.8,395.9,411.3z M414.5,408.6
			c-0.3-0.6-0.6-1.2-0.9-1.7l0.8-0.5c0.4,0.6,0.7,1.2,1,1.8L414.5,408.6z M397.9,408l-0.8-0.6c0.4-0.6,0.9-1.1,1.3-1.6l0.7,0.7
			C398.8,407,398.4,407.5,397.9,408z M412.5,405.4c-0.4-0.5-0.9-0.9-1.4-1.3l0.6-0.8c0.6,0.4,1.1,0.9,1.6,1.4L412.5,405.4z
			 M400.6,405.2l-0.6-0.8c0.6-0.5,1.1-0.9,1.7-1.2l0.5,0.9C401.7,404.4,401.1,404.8,400.6,405.2z M403.9,403.3l-0.3-0.9
			c0.7-0.2,1.4-0.4,2-0.5l0.1,1C405.1,402.9,404.5,403.1,403.9,403.3z M409.4,403.2c-0.6-0.2-1.2-0.4-1.8-0.4l0.1-1
			c0.7,0.1,1.4,0.2,2.1,0.5L409.4,403.2z"/>
	</g>
</g>
</svg>
